<?xml version="1.0" encoding="UTF-8" standalone="no"?>
<!-- Created with Inkscape (http://www.inkscape.org/) -->

<svg
   width="210mm"
   height="297mm"
   viewBox="0 0 210 297"
   version="1.1"
   id="svg1"
   xml:space="preserve"
   sodipodi:docname="Trissi-Logo-Gesamt-White.svg"
   inkscape:version="1.4.4 (dcaf3e7, 2026-05-05)"
   xmlns:inkscape="http://www.inkscape.org/namespaces/inkscape"
   xmlns:sodipodi="http://sodipodi.sourceforge.net/DTD/sodipodi-0.dtd"
   xmlns="http://www.w3.org/2000/svg"
   xmlns:svg="http://www.w3.org/2000/svg"><sodipodi:namedview
     id="namedview1"
     pagecolor="#ffffff"
     bordercolor="#000000"
     borderopacity="0.25"
     inkscape:showpageshadow="2"
     inkscape:pageopacity="0.0"
     inkscape:pagecheckerboard="0"
     inkscape:deskcolor="#d1d1d1"
     inkscape:document-units="mm"
     inkscape:zoom="0.96379011"
     inkscape:cx="-15.563555"
     inkscape:cy="403.09606"
     inkscape:window-width="1920"
     inkscape:window-height="1009"
     inkscape:window-x="-8"
     inkscape:window-y="-8"
     inkscape:window-maximized="1"
     inkscape:current-layer="svg1" /><defs
     id="defs1"><marker
       id="DistanceX"
       orient="auto"
       refX="0.0"
       refY="0.0"
       style="overflow:visible"><path
         d="M 3,-3 L -3,3 M 0,-5 L  0,5"
         style="stroke:#000000; stroke-width:0.5"
         id="path1" /></marker><pattern
       id="Hatch"
       patternUnits="userSpaceOnUse"
       width="8"
       height="8"
       x="0"
       y="0"><path
         d="M8 4 l-4,4"
         stroke="#000000"
         stroke-width="0.25"
         linecap="square"
         id="path2" /><path
         d="M6 2 l-4,4"
         stroke="#000000"
         stroke-width="0.25"
         linecap="square"
         id="path3" /><path
         d="M4 0 l-4,4"
         stroke="#000000"
         stroke-width="0.25"
         linecap="square"
         id="path4" /></pattern><symbol
       id="*MODEL_SPACE" /><symbol
       id="*PAPER_SPACE" /><marker
       id="DistanceX-0"
       orient="auto"
       refX="0.0"
       refY="0.0"
       style="overflow:visible"><path
         d="M 3,-3 L -3,3 M 0,-5 L  0,5"
         style="stroke:#000000; stroke-width:0.5"
         id="path1-9" /></marker><pattern
       id="Hatch-4"
       patternUnits="userSpaceOnUse"
       width="8"
       height="8"
       x="0"
       y="0"><path
         d="M8 4 l-4,4"
         stroke="#000000"
         stroke-width="0.25"
         linecap="square"
         id="path2-8" /><path
         d="M6 2 l-4,4"
         stroke="#000000"
         stroke-width="0.25"
         linecap="square"
         id="path3-8" /><path
         d="M4 0 l-4,4"
         stroke="#000000"
         stroke-width="0.25"
         linecap="square"
         id="path4-2" /></pattern><symbol
       id="*MODEL_SPACE-4" /><symbol
       id="*PAPER_SPACE-5" /><marker
       id="DistanceX-5"
       orient="auto"
       refX="0.0"
       refY="0.0"
       style="overflow:visible"><path
         d="M 3,-3 L -3,3 M 0,-5 L  0,5"
         style="stroke:#000000; stroke-width:0.5"
         id="path1-1" /></marker><pattern
       id="Hatch-7"
       patternUnits="userSpaceOnUse"
       width="8"
       height="8"
       x="0"
       y="0"><path
         d="M8 4 l-4,4"
         stroke="#000000"
         stroke-width="0.25"
         linecap="square"
         id="path2-1" /><path
         d="M6 2 l-4,4"
         stroke="#000000"
         stroke-width="0.25"
         linecap="square"
         id="path3-1" /><path
         d="M4 0 l-4,4"
         stroke="#000000"
         stroke-width="0.25"
         linecap="square"
         id="path4-5" /></pattern><symbol
       id="*MODEL_SPACE-2" /><symbol
       id="*PAPER_SPACE-7" /><marker
       id="DistanceX-6"
       orient="auto"
       refX="0.0"
       refY="0.0"
       style="overflow:visible"><path
         d="M 3,-3 L -3,3 M 0,-5 L  0,5"
         style="stroke:#000000; stroke-width:0.5"
         id="path1-8" /></marker><pattern
       id="Hatch-5"
       patternUnits="userSpaceOnUse"
       width="8"
       height="8"
       x="0"
       y="0"><path
         d="M8 4 l-4,4"
         stroke="#000000"
         stroke-width="0.25"
         linecap="square"
         id="path2-7" /><path
         d="M6 2 l-4,4"
         stroke="#000000"
         stroke-width="0.25"
         linecap="square"
         id="path3-6" /><path
         d="M4 0 l-4,4"
         stroke="#000000"
         stroke-width="0.25"
         linecap="square"
         id="path4-1" /></pattern><symbol
       id="*MODEL_SPACE-8" /><symbol
       id="*PAPER_SPACE-9" /><marker
       id="DistanceX-3"
       orient="auto"
       refX="0.0"
       refY="0.0"
       style="overflow:visible"><path
         d="M 3,-3 L -3,3 M 0,-5 L  0,5"
         style="stroke:#000000; stroke-width:0.5"
         id="path1-4" /></marker><pattern
       id="Hatch-1"
       patternUnits="userSpaceOnUse"
       width="8"
       height="8"
       x="0"
       y="0"><path
         d="M8 4 l-4,4"
         stroke="#000000"
         stroke-width="0.25"
         linecap="square"
         id="path2-13" /><path
         d="M6 2 l-4,4"
         stroke="#000000"
         stroke-width="0.25"
         linecap="square"
         id="path3-87" /><path
         d="M4 0 l-4,4"
         stroke="#000000"
         stroke-width="0.25"
         linecap="square"
         id="path4-4" /></pattern><symbol
       id="*MODEL_SPACE-27" /><symbol
       id="*PAPER_SPACE-79" /><marker
       id="DistanceX-09"
       orient="auto"
       refX="0.0"
       refY="0.0"
       style="overflow:visible"><path
         d="M 3,-3 L -3,3 M 0,-5 L  0,5"
         style="stroke:#000000; stroke-width:0.5"
         id="path1-48" /></marker><pattern
       id="Hatch-8"
       patternUnits="userSpaceOnUse"
       width="8"
       height="8"
       x="0"
       y="0"><path
         d="M8 4 l-4,4"
         stroke="#000000"
         stroke-width="0.25"
         linecap="square"
         id="path2-2" /><path
         d="M6 2 l-4,4"
         stroke="#000000"
         stroke-width="0.25"
         linecap="square"
         id="path3-4" /><path
         d="M4 0 l-4,4"
         stroke="#000000"
         stroke-width="0.25"
         linecap="square"
         id="path4-55" /></pattern><symbol
       id="*MODEL_SPACE-1" /><symbol
       id="*PAPER_SPACE-71" /></defs><g
     id="layer1"
     style="fill:#ffffff"><g
       id="g15"
       transform="matrix(0.26458333,0,0,0.26458333,53.29961,-249.36429)"
       style="fill:#ffffff"><path
         d="m 22.677425,1119.7531 a 7.559055,7.559055 0 0 0 3.779528,-6.5464 v -100.2931 a 3.779528,3.779528 0 0 1 3.779527,-3.7796 h 56.692914 a 7.559055,7.559055 0 0 0 7.559055,-7.559 v -41.57482 a 7.559055,7.559055 0 0 0 -7.559055,-7.55905 H -86.928874 a 7.559055,7.559055 0 0 0 -7.559055,7.55905 v 41.57482 a 7.559055,7.559055 0 0 0 7.559055,7.559 h 56.692913 a 3.779528,3.779528 0 0 1 3.779528,3.7796 v 28.0541 a 3.779528,3.779528 0 0 0 1.889764,3.2731 l 13.228346,7.6374 v -50.3032 a 7.559055,7.559055 0 0 0 -7.559055,-7.55907 h -56.692913 a 3.779528,3.779528 0 0 1 -3.779528,-3.77953 v -18.89763 a 3.779528,3.779528 0 0 1 3.779528,-3.77953 H 75.590811 a 3.779528,3.779528 0 0 1 3.779528,3.77953 v 18.89763 a 3.779528,3.779528 0 0 1 -3.779528,3.77953 H 18.897898 a 7.559055,7.559055 0 0 0 -7.559056,7.55907 v 124.7244 z"
         style="fill:#ffffff;stroke:#000000"
         id="path5" /><path
         d="m -11.338323,1071.5172 v 54.7822 l -11.338583,-6.5463 a 7.559055,7.559055 0 0 1 -3.779527,-6.5464 v -52.6 l 13.228346,7.6374 a 3.779528,3.779528 0 0 1 1.889764,3.2731 z"
         style="fill:#ffffff;stroke:#000000"
         id="path6" /><path
         d="m -37.795016,1167.6028 a 7.559055,7.559055 0 0 0 11.338583,6.5464 l 19.910418,-11.4953 a 3.779528,3.779528 0 0 1 1.889792,-0.5064 l 9.31314,10e-5 a 3.779528,3.779528 0 0 1 1.889736,0.5064 l 19.9103,11.4952 a 7.559055,7.559055 0 0 0 11.338582,-6.5464 v -26.0286 a 7.559055,7.559055 0 0 0 -11.338582,-6.5464 l -19.910419,11.4953 a 3.779528,3.779528 0 0 1 -1.889791,0.5064 l -9.31314,-1e-4 a 3.779528,3.779528 0 0 1 -1.889736,-0.5063 l -19.9103,-11.4953 a 7.559055,7.559055 0 0 0 -11.338583,6.5464 z"
         style="fill:#ffffff;stroke:#000000"
         id="path7" /><path
         d="m -166.29893,1254.8033 v -37.7952 h 18.89764 v -7.5591 h -45.35434 v 7.5591 h 18.89764 v 37.7952 z"
         style="fill:#ffffff;stroke:#000000"
         id="path8" /><path
         d="m 54.803429,1247.2443 a 1.889764,1.889764 0 0 0 1.889764,-1.8898 v -7.559 a 1.889764,1.889764 0 0 0 -1.889764,-1.8898 H 26.456972 a 7.559055,7.559055 0 0 1 -7.559055,-7.5591 v -11.3385 a 7.559055,7.559055 0 0 1 7.559055,-7.5591 h 30.236221 a 7.559055,7.559055 0 0 1 7.559055,7.5591 v 7.559 h -7.559055 v -5.6693 a 1.889764,1.889764 0 0 0 -1.889764,-1.8897 H 28.346736 a 1.889764,1.889764 0 0 0 -1.889764,1.8897 v 7.5591 a 1.889764,1.889764 0 0 0 1.889764,1.8897 h 28.346457 a 7.559055,7.559055 0 0 1 7.559055,7.5591 v 11.3386 a 7.559055,7.559055 0 0 1 -7.559055,7.559 H 26.456972 a 7.559055,7.559055 0 0 1 -7.559055,-7.559 v -7.5591 h 7.559055 v 5.6693 a 1.889764,1.889764 0 0 0 1.889764,1.8898 z"
         style="fill:#ffffff;stroke:#000000"
         id="path9" /><path
         d="m -26.456413,1209.449 h 7.559055 v 45.3543 h -7.559055 z"
         style="fill:#ffffff;stroke:#000000"
         id="path10" /><path
         d="m 139.8428,1245.3545 v -7.559 a 1.889764,1.889764 0 0 0 -1.88977,-1.8898 h -28.34645 a 7.559055,7.559055 0 0 1 -7.55906,-7.5591 v -11.3385 a 7.559055,7.559055 0 0 1 7.55906,-7.5591 h 30.23622 a 7.559055,7.559055 0 0 1 7.55905,7.5591 v 7.559 h -7.55905 v -5.6693 a 1.889764,1.889764 0 0 0 -1.88977,-1.8897 h -26.45669 a 1.889764,1.889764 0 0 0 -1.88976,1.8897 v 7.5591 a 1.889764,1.889764 0 0 0 1.88976,1.8897 h 28.34646 a 7.559055,7.559055 0 0 1 7.55905,7.5591 v 11.3386 a 7.559055,7.559055 0 0 1 -7.55905,7.559 h -30.23622 a 7.559055,7.559055 0 0 1 -7.55906,-7.559 v -9.4488 h 7.55906 v 7.559 a 1.889764,1.889764 0 0 0 1.88976,1.8898 h 26.45669 a 1.889764,1.889764 0 0 0 1.88977,-1.8898 z"
         style="fill:#ffffff;stroke:#000000"
         id="path11" /><path
         d="m 192.75618,1209.449 v 45.3543 h -7.55905 v -45.3543 z"
         style="fill:#ffffff;stroke:#000000"
         id="path12" /><path
         d="m 111.49634,1217.0081 a 1.889764,1.889764 0 0 0 -1.88976,1.8897"
         style="fill:#ffffff;stroke:#000000"
         id="path13" /><path
         d="m 28.346736,1217.0081 a 1.889764,1.889764 0 0 0 -1.889764,1.8897"
         style="fill:#ffffff;stroke:#000000"
         id="path14" /><path
         d="m -71.810744,1235.9057 a 7.559055,7.559055 0 0 0 7.559055,-7.5591 v -11.3385 a 7.559055,7.559055 0 0 0 -7.559055,-7.5591 h -30.236226 v 45.3543 h -7.55905 v -45.3543 h 7.55905 v 7.5591 h 26.456698 a 3.779528,3.779528 0 0 1 3.779528,3.7795 v 3.7795 a 3.779528,3.779528 0 0 1 -3.779528,3.7795 h -26.456698 v 7.5591 h 12.070635 l 15.857,18.8976 h 9.867646 l -15.857001,-18.8976 z"
         style="fill:#ffffff;stroke:#000000"
         id="path15" /></g></g><rect
     style="fill:#ffffff;stroke-width:0.264999"
     id="rect1"
     width="0.44889706"
     height="1.7379595"
     x="26.157352"
     y="70.768013" /><rect
     style="fill:#ffffff;stroke-width:0.264999"
     id="rect2"
     width="0.32757297"
     height="1.7379574"
     x="26.133087"
     y="75.766541" /></svg>
