<?xml version="1.0" encoding="UTF-8" standalone="no"?>
<!-- Created with Inkscape (http://www.inkscape.org/) -->

<svg
   width="210mm"
   height="297mm"
   viewBox="0 0 210 297"
   version="1.1"
   id="svg1"
   xml:space="preserve"
   inkscape:version="1.4.4 (dcaf3e7, 2026-05-05)"
   sodipodi:docname="Trissi-Logo-T.svg"
   inkscape:export-filename="Trissi-Logo-T-Black"
   inkscape:export-xdpi="96"
   inkscape:export-ydpi="96"
   xmlns:inkscape="http://www.inkscape.org/namespaces/inkscape"
   xmlns:sodipodi="http://sodipodi.sourceforge.net/DTD/sodipodi-0.dtd"
   xmlns="http://www.w3.org/2000/svg"
   xmlns:svg="http://www.w3.org/2000/svg"><sodipodi:namedview
     id="namedview1"
     pagecolor="#ffffff"
     bordercolor="#000000"
     borderopacity="0.25"
     inkscape:showpageshadow="2"
     inkscape:pageopacity="0.0"
     inkscape:pagecheckerboard="0"
     inkscape:deskcolor="#d1d1d1"
     inkscape:document-units="mm"
     inkscape:zoom="2.0334082"
     inkscape:cx="155.15822"
     inkscape:cy="178.76391"
     inkscape:window-width="1920"
     inkscape:window-height="1009"
     inkscape:window-x="-8"
     inkscape:window-y="-8"
     inkscape:window-maximized="1"
     inkscape:current-layer="layer1" /><defs
     id="defs1"><marker
       id="DistanceX"
       orient="auto"
       refX="0.0"
       refY="0.0"
       style="overflow:visible"><path
         d="M 3,-3 L -3,3 M 0,-5 L  0,5"
         style="stroke:#000000; stroke-width:0.5"
         id="path1" /></marker><pattern
       id="Hatch"
       patternUnits="userSpaceOnUse"
       width="8"
       height="8"
       x="0"
       y="0"><path
         d="M8 4 l-4,4"
         stroke="#000000"
         stroke-width="0.25"
         linecap="square"
         id="path2" /><path
         d="M6 2 l-4,4"
         stroke="#000000"
         stroke-width="0.25"
         linecap="square"
         id="path3" /><path
         d="M4 0 l-4,4"
         stroke="#000000"
         stroke-width="0.25"
         linecap="square"
         id="path4" /></pattern><symbol
       id="*MODEL_SPACE" /><symbol
       id="*PAPER_SPACE" /></defs><g
     inkscape:label="Ebene 1"
     inkscape:groupmode="layer"
     id="layer1"><g
       inkscape:label="0"
       id="g7"
       transform="matrix(0.26458333,0,0,0.26458333,27.731575,-248.66033)"
       style="fill:#000000"><path
         d="m -26.456433,1012.9136 a 3.779528,3.779528 0 0 0 -3.779528,-3.7796 h -56.692913 a 7.559055,7.559055 0 0 1 -7.559055,-7.559 v -41.57482 a 7.559055,7.559055 0 0 1 7.559055,-7.55905 H 86.929394 a 7.559055,7.559055 0 0 1 7.559055,7.55905 v 41.57482 a 7.559055,7.559055 0 0 1 -7.559055,7.559 H 30.23648 a 3.779528,3.779528 0 0 0 -3.779527,3.7796 v 100.2931 a 7.559055,7.559055 0 0 1 -3.779528,6.5464 l -11.338583,6.5463 V 1001.575 a 7.559055,7.559055 0 0 1 7.559056,-7.55907 h 56.692913 a 3.779528,3.779528 0 0 0 3.779528,-3.77953 v -18.89763 a 3.779528,3.779528 0 0 0 -3.779528,-3.77953 H -75.590291 a 3.779528,3.779528 0 0 0 -3.779528,3.77953 v 18.89763 a 3.779528,3.779528 0 0 0 3.779528,3.77953 h 56.692913 a 7.559055,7.559055 0 0 1 7.559055,7.55907 v 50.3032 l -13.228346,-7.6374 a 3.779528,3.779528 0 0 1 -1.889764,-3.2731 z"
         style="fill:#000000;stroke:#000000"
         id="path5" /><path
         d="m -6.546015,1162.6539 -19.910418,11.4953 a 7.559055,7.559055 0 0 1 -11.338583,-6.5464 v -26.0286 a 7.559055,7.559055 0 0 1 11.338583,-6.5464 l 19.9103,11.4953 a 3.779528,3.779528 0 0 0 1.889736,0.5063 l 9.31314,1e-4 a 3.779528,3.779528 0 0 0 1.889791,-0.5064 l 19.910419,-11.4953 a 7.559055,7.559055 0 0 1 11.338582,6.5464 v 26.0286 a 7.559055,7.559055 0 0 1 -11.338582,6.5464 l -19.9103,-11.4952 a 3.779528,3.779528 0 0 0 -1.889736,-0.5064 l -9.31314,-10e-5 a 3.779528,3.779528 0 0 0 -1.889792,0.5064 z"
         style="fill:#000000;stroke:#000000"
         id="path6" /><path
         d="m -11.338323,1071.5172 v 54.7822 l -11.338583,-6.5463 a 7.559055,7.559055 0 0 1 -3.779527,-6.5464 v -52.6 l 13.228346,7.6374 a 3.779528,3.779528 0 0 1 1.889764,3.2731 z"
         style="fill:#000000;stroke:#000000"
         id="path7" /></g></g></svg>
