<?xml version="1.0" encoding="UTF-8" standalone="no"?>
<!-- Created with Inkscape (http://www.inkscape.org/) -->

<svg
   width="210mm"
   height="297mm"
   viewBox="0 0 210 297"
   version="1.1"
   id="svg1"
   xml:space="preserve"
   inkscape:version="1.4.4 (dcaf3e7, 2026-05-05)"
   sodipodi:docname="Trissi-Logo-Schriftzug-White.svg"
   xmlns:inkscape="http://www.inkscape.org/namespaces/inkscape"
   xmlns:sodipodi="http://sodipodi.sourceforge.net/DTD/sodipodi-0.dtd"
   xmlns="http://www.w3.org/2000/svg"
   xmlns:svg="http://www.w3.org/2000/svg"><sodipodi:namedview
     id="namedview1"
     pagecolor="#ffffff"
     bordercolor="#000000"
     borderopacity="0.25"
     inkscape:showpageshadow="2"
     inkscape:pageopacity="0.0"
     inkscape:pagecheckerboard="0"
     inkscape:deskcolor="#d1d1d1"
     inkscape:document-units="mm"
     inkscape:zoom="2.8284271"
     inkscape:cx="223.09219"
     inkscape:cy="109.42477"
     inkscape:window-width="1920"
     inkscape:window-height="1009"
     inkscape:window-x="-8"
     inkscape:window-y="-8"
     inkscape:window-maximized="1"
     inkscape:current-layer="g20" /><defs
     id="defs1"><marker
       id="DistanceX"
       orient="auto"
       refX="0.0"
       refY="0.0"
       style="overflow:visible"><path
         d="M 3,-3 L -3,3 M 0,-5 L  0,5"
         style="stroke:#000000; stroke-width:0.5"
         id="path1" /></marker><pattern
       id="Hatch"
       patternUnits="userSpaceOnUse"
       width="8"
       height="8"
       x="0"
       y="0"><path
         d="M8 4 l-4,4"
         stroke="#000000"
         stroke-width="0.25"
         linecap="square"
         id="path2" /><path
         d="M6 2 l-4,4"
         stroke="#000000"
         stroke-width="0.25"
         linecap="square"
         id="path3" /><path
         d="M4 0 l-4,4"
         stroke="#000000"
         stroke-width="0.25"
         linecap="square"
         id="path4" /></pattern><symbol
       id="*MODEL_SPACE" /><symbol
       id="*PAPER_SPACE" /><marker
       id="DistanceX-2"
       orient="auto"
       refX="0.0"
       refY="0.0"
       style="overflow:visible"><path
         d="M 3,-3 L -3,3 M 0,-5 L  0,5"
         style="stroke:#000000; stroke-width:0.5"
         id="path1-3" /></marker><pattern
       id="Hatch-2"
       patternUnits="userSpaceOnUse"
       width="8"
       height="8"
       x="0"
       y="0"><path
         d="M8 4 l-4,4"
         stroke="#000000"
         stroke-width="0.25"
         linecap="square"
         id="path2-2" /><path
         d="M6 2 l-4,4"
         stroke="#000000"
         stroke-width="0.25"
         linecap="square"
         id="path3-1" /><path
         d="M4 0 l-4,4"
         stroke="#000000"
         stroke-width="0.25"
         linecap="square"
         id="path4-6" /></pattern><symbol
       id="*MODEL_SPACE-8" /><symbol
       id="*PAPER_SPACE-5" /><marker
       id="DistanceX-6"
       orient="auto"
       refX="0.0"
       refY="0.0"
       style="overflow:visible"><path
         d="M 3,-3 L -3,3 M 0,-5 L  0,5"
         style="stroke:#000000; stroke-width:0.5"
         id="path1-1" /></marker><pattern
       id="Hatch-8"
       patternUnits="userSpaceOnUse"
       width="8"
       height="8"
       x="0"
       y="0"><path
         d="M8 4 l-4,4"
         stroke="#000000"
         stroke-width="0.25"
         linecap="square"
         id="path2-9" /><path
         d="M6 2 l-4,4"
         stroke="#000000"
         stroke-width="0.25"
         linecap="square"
         id="path3-2" /><path
         d="M4 0 l-4,4"
         stroke="#000000"
         stroke-width="0.25"
         linecap="square"
         id="path4-7" /></pattern><symbol
       id="*MODEL_SPACE-9" /><symbol
       id="*PAPER_SPACE-54" /></defs><g
     inkscape:label="Ebene 1"
     inkscape:groupmode="layer"
     id="layer1"><path
       style="fill:#ffffff;stroke-width:0.264999"
       d="M 25.084613,9.0592856 25.25619,10.569167"
       id="path18" /><g
       id="g20"
       transform="translate(0,-7.0158251)"
       style="fill:#ffffff"><g
         inkscape:label="0"
         id="g12"
         transform="matrix(0.26458333,0,0,0.26458333,52.179183,-311.24766)"
         style="fill:#ffffff"><path
           d="m 139.8428,1254.8033 a 7.559055,7.559055 0 0 0 7.55905,-7.559 v -11.3386 a 7.559055,7.559055 0 0 0 -7.55905,-7.5591 h -28.34646 a 1.889764,1.889764 0 0 1 -1.88976,-1.8897 v -7.5591 a 1.889764,1.889764 0 0 1 1.88976,-1.8897 h 26.45669 a 1.889764,1.889764 0 0 1 1.88977,1.8897 v 5.6693 h 7.55905 v -7.559 a 7.559055,7.559055 0 0 0 -7.55905,-7.5591 h -30.23622 a 7.559055,7.559055 0 0 0 -7.55906,7.5591 v 11.3385 a 7.559055,7.559055 0 0 0 7.55906,7.5591 h 28.34645 a 1.889764,1.889764 0 0 1 1.88977,1.8898 v 7.559 a 1.889764,1.889764 0 0 1 -1.88977,1.8898 h -26.45669 a 1.889764,1.889764 0 0 1 -1.88976,-1.8898 v -7.559 h -7.55906 v 9.4488 a 7.559055,7.559055 0 0 0 7.55906,7.559 z"
           style="fill:#ffffff;stroke:#000000"
           id="path5" /><path
           d="m 192.75618,1209.449 v 45.3543 h -7.55905 v -45.3543 z"
           style="fill:#ffffff;stroke:#000000"
           id="path6" /><path
           d="m 111.49634,1217.0081 a 1.889764,1.889764 0 0 0 -1.88976,1.8897"
           style="fill:#ffffff;stroke:#000000"
           id="path7" /><path
           d="m -18.897358,1209.449 v 45.3543 h -7.559055 v -45.3543 z"
           style="fill:#ffffff;stroke:#000000"
           id="path8" /><path
           d="m -75.590272,1228.3466 a 3.779528,3.779528 0 0 0 3.779528,-3.7795 v -3.7795 a 3.779528,3.779528 0 0 0 -3.779528,-3.7795 h -26.456698 v -7.5591 h -7.55905 v 45.3543 h 7.55905 v -45.3543 h 30.236226 a 7.559055,7.559055 0 0 1 7.559055,7.5591 v 11.3385 a 7.559055,7.559055 0 0 1 -7.559055,7.5591 h -8.297946 l 15.857001,18.8976 h -9.867646 l -15.857,-18.8976 h -12.070635 v -7.5591 z"
           style="fill:#ffffff;stroke:#000000"
           id="path9" /><path
           d="m -192.75563,1217.0081 h 18.89764 v 37.7952 h 7.55906 v -37.7952 h 18.89764 v -7.5591 h -45.35434 z"
           style="fill:#ffffff;stroke:#000000"
           id="path10" /><path
           d="M 54.803429,1235.9057 H 26.456972 a 7.559055,7.559055 0 0 1 -7.559055,-7.5591 v -11.3385 a 7.559055,7.559055 0 0 1 7.559055,-7.5591 h 30.236221 a 7.559055,7.559055 0 0 1 7.559055,7.5591 v 7.559 h -7.559055 v -5.6693 a 1.889764,1.889764 0 0 0 -1.889764,-1.8897 H 28.346736 a 1.889764,1.889764 0 0 0 -1.889764,1.8897 v 7.5591 a 1.889764,1.889764 0 0 0 1.889764,1.8897 h 28.346457 a 7.559055,7.559055 0 0 1 7.559055,7.5591 v 11.3386 a 7.559055,7.559055 0 0 1 -7.559055,7.559 H 26.456972 a 7.559055,7.559055 0 0 1 -7.559055,-7.559 v -7.5591 h 7.559055 v 5.6693 a 1.889764,1.889764 0 0 0 1.889764,1.8898 h 26.456693 a 1.889764,1.889764 0 0 0 1.889764,-1.8898 v -7.559 a 1.889764,1.889764 0 0 0 -1.889764,-1.8898 z"
           style="fill:#ffffff;stroke:#000000"
           id="path11" /><path
           d="m 28.346736,1217.0081 a 1.889764,1.889764 0 0 0 -1.889764,1.8897"
           style="fill:#ffffff;stroke:#000000"
           id="path12" /></g><rect
         style="fill:#ffffff;stroke-width:0.264999"
         id="rect19"
         width="0.58841914"
         height="1.7349265"
         x="24.840992"
         y="13.885477" /><rect
         style="fill:#ffffff;stroke-width:0.264999"
         id="rect20"
         width="0.31109187"
         height="1.7357905"
         x="25.026896"
         y="8.8842125" /></g></g></svg>
